<svg width="58" height="45" viewBox="0 0 58 45" fill="none" xmlns="http://www.w3.org/2000/svg">
<path d="M2.76726 9.93041L3.56148 3.75556C3.76208 2.19587 4.99185 1.03516 6.44371 1.03516H50.0896C51.5039 1.03516 52.7135 2.13814 52.9565 3.64943L53.9663 9.93041C54.1368 10.5606 54.2677 11.13 54.3605 11.6653C54.0511 10.4493 53.2868 10.0255 52.6818 9.93041H52.1378H4.41297C3.12155 9.93041 2.57523 11.0442 2.41639 11.7969C2.40144 11.8897 2.3869 11.9821 2.37278 12.0741C2.38105 11.9904 2.39531 11.8968 2.41639 11.7969C2.51446 11.1888 2.63066 10.5661 2.76726 9.93041Z" fill="#FFD521" fill-opacity="0.9"/>
<path d="M3.76382 26.4495L3.40966 26.4455C2.68213 27.7081 2.58009 29.0975 2.51013 30.0755C2.38483 31.8273 2.31089 33.4 2.29283 34.9467C2.23289 40.0778 6.67123 43.9644 11.8026 43.9644H46.7654C51.0665 43.9644 54.9246 41.2025 55.499 36.94C56.5956 28.8037 56.0205 19.4865 53.9663 18.3177L51.3844 18.3248L51.5726 18.3243V18.3243C52.9917 18.2734 54.2355 17.2953 54.4053 15.8854C54.5858 14.3867 54.5767 12.9123 54.3605 11.6653C54.0511 10.4493 53.2868 10.0255 52.6818 9.93041H52.1378H4.41297C3.12155 9.93041 2.57523 11.0442 2.41639 11.7969C2.40144 11.8897 2.3869 11.9821 2.37278 12.0741C1.54077 17.4982 2.14386 21.7266 2.52271 23.5894C2.66439 24.286 2.93925 24.9414 3.2803 25.5652L3.76382 26.4495Z" fill="#FFD521" fill-opacity="0.9"/>
<path d="M9.63194 35.4559H43.9677C46.3304 35.4559 48.2457 33.5406 48.2457 31.1779V31.1779C48.2457 28.8338 46.3595 26.9263 44.0156 26.9001L3.40966 26.4455M3.40966 26.4455L3.76382 26.4495M3.40966 26.4455C2.68213 27.7081 2.58009 29.0975 2.51013 30.0755M53.9663 18.3177C56.0205 19.4865 56.5956 28.8037 55.499 36.94C54.9246 41.2025 51.0665 43.9644 46.7654 43.9644H11.8026C6.67123 43.9644 2.23289 40.0778 2.29283 34.9467C2.31089 33.4 2.38483 31.8273 2.51013 30.0755M53.9663 18.3177L9.63194 18.4389M53.9663 18.3177L51.3844 18.3248L51.5726 18.3243V18.3243C52.9917 18.2734 54.2355 17.2953 54.4053 15.8854C54.5858 14.3867 54.5767 12.9123 54.3605 11.6653M2.76726 9.93041H4.41297M2.76726 9.93041L3.56148 3.75556M2.76726 9.93041C2.63066 10.5661 2.51446 11.1888 2.41639 11.7969M53.9663 9.93041C54.1368 10.5606 54.2677 11.13 54.3605 11.6653M53.9663 9.93041L52.9565 3.64943M53.9663 9.93041H52.6818M3.76382 26.4495L5.50186 26.4689C3.46476 26.4689 2.4973 29.0328 2.51013 30.0755M3.76382 26.4495L3.2803 25.5652C2.93925 24.9414 2.66439 24.286 2.52271 23.5894C2.14386 21.7266 1.54077 17.4982 2.37278 12.0741M4.41297 9.93041H52.1378M4.41297 9.93041C3.12155 9.93041 2.57523 11.0442 2.41639 11.7969M2.37278 12.0741C2.3869 11.9821 2.40144 11.8897 2.41639 11.7969M2.37278 12.0741C2.38105 11.9904 2.39531 11.8968 2.41639 11.7969M52.1378 9.93041H52.6818M52.1378 9.93041C52.2834 9.90396 52.4731 9.89761 52.6818 9.93041M54.3605 11.6653C54.0511 10.4493 53.2868 10.0255 52.6818 9.93041M3.56148 3.75556C3.76208 2.19587 4.99185 1.03516 6.44371 1.03516M3.56148 3.75556L3.58833 3.5468C3.77305 2.11064 4.99572 1.03516 6.44371 1.03516V1.03516M6.44371 1.03516H50.0896M50.0896 1.03516C51.5039 1.03516 52.7135 2.13814 52.9565 3.64943M50.0896 1.03516V1.03516C51.4994 1.03516 52.7007 2.05873 52.9245 3.45071L52.9565 3.64943" stroke="white" stroke-linecap="round"/>
<path d="M2.97314 9.40027L3.84619 2.77148L52.7366 3.24497L53.9007 9.55809L2.97314 9.40027Z" fill="white" stroke="black"/>
<path d="M46.0432 36.073C46.0432 36.073 47.0973 35.7188 47.6438 35.126C48.3713 34.3368 48.3713 33.0742 48.3713 33.0742" stroke="white" stroke-width="3" stroke-linecap="round"/>
<path d="M10.103 36.0732H45.8978" stroke="white" stroke-width="3" stroke-linecap="round"/>
<path d="M9.95752 19.0278H53.7552" stroke="white" stroke-width="3" stroke-linecap="round"/>
<path d="M6.86503 40.2754C8.86243 42.3272 17.3415 43.2741 17.3415 43.2741C17.3415 43.2741 12.5358 43.2904 8.90213 43.2741C6.62877 43.264 5.15887 42.7067 4.50009 41.7597C3.59307 40.4559 3.03843 38.8281 2.99069 36.926C2.92278 34.2203 2.99069 32.0333 2.99069 32.0333C2.99069 32.0333 4.48129 37.8268 6.86503 40.2754Z" fill="white"/>
<path d="M5.04044 22.9732C7.03785 25.025 15.517 25.9719 15.517 25.9719C15.517 25.9719 10.7112 25.9882 7.07755 25.9719C4.80419 25.9618 4.2043 26.1405 3.54552 25.1936C2.63851 23.8898 2.63876 21.5737 2.59102 19.6716C2.52311 16.9659 2.90911 14.8398 2.90911 14.8398C2.90911 14.8398 2.6567 20.5246 5.04044 22.9732Z" fill="white"/>
<path d="M9.63194 35.4559H43.9677C46.3304 35.4559 48.2457 33.5406 48.2457 31.1779V31.1779C48.2457 28.8338 46.3595 26.9263 44.0156 26.9001L3.40966 26.4455M3.40966 26.4455L3.76382 26.4495M3.40966 26.4455C2.68213 27.7081 2.58009 29.0975 2.51013 30.0755M53.9663 18.3177C56.0205 19.4865 56.5956 28.8037 55.499 36.94C54.9246 41.2025 51.0665 43.9644 46.7654 43.9644H11.8026C6.67123 43.9644 2.23289 40.0778 2.29283 34.9467C2.31089 33.4 2.38483 31.8273 2.51013 30.0755M53.9663 18.3177L9.63194 18.4389M53.9663 18.3177L51.3844 18.3248L51.5726 18.3243V18.3243C52.9917 18.2734 54.2355 17.2953 54.4053 15.8854C54.5858 14.3867 54.5767 12.9123 54.3605 11.6653M2.76726 9.93041H4.41297M2.76726 9.93041L3.56148 3.75556M2.76726 9.93041C2.63066 10.5661 2.51446 11.1888 2.41639 11.7969M53.9663 9.93041C54.1368 10.5606 54.2677 11.13 54.3605 11.6653M53.9663 9.93041L52.9565 3.64943M53.9663 9.93041H52.6818M3.76382 26.4495L5.50186 26.4689C3.46476 26.4689 2.4973 29.0328 2.51013 30.0755M3.76382 26.4495L3.2803 25.5652C2.93925 24.9414 2.66439 24.286 2.52271 23.5894C2.14386 21.7266 1.54077 17.4982 2.37278 12.0741M4.41297 9.93041H52.1378M4.41297 9.93041C3.12155 9.93041 2.57523 11.0442 2.41639 11.7969M2.37278 12.0741C2.3869 11.9821 2.40144 11.8897 2.41639 11.7969M2.37278 12.0741C2.38105 11.9904 2.39531 11.8968 2.41639 11.7969M52.1378 9.93041H52.6818M52.1378 9.93041C52.2834 9.90396 52.4731 9.89761 52.6818 9.93041M54.3605 11.6653C54.0511 10.4493 53.2868 10.0255 52.6818 9.93041M3.56148 3.75556C3.76208 2.19587 4.99185 1.03516 6.44371 1.03516M3.56148 3.75556L3.58833 3.5468C3.77305 2.11064 4.99572 1.03516 6.44371 1.03516V1.03516M6.44371 1.03516H50.0896M50.0896 1.03516C51.5039 1.03516 52.7135 2.13814 52.9565 3.64943M50.0896 1.03516V1.03516C51.4994 1.03516 52.7007 2.05873 52.9245 3.45071L52.9565 3.64943" stroke="#1B1E28" stroke-width="2" stroke-linecap="round"/>
<path fill-rule="evenodd" clip-rule="evenodd" d="M50.5895 2.05762H4.91488C4.86279 2.05762 4.81123 2.06939 4.76335 2.09223L4.66959 2.18733C4.62086 2.23676 4.60016 2.25318 4.5531 2.30421V2.30421C4.37442 2.49798 4.29832 2.83789 4.39785 3.08195L4.58961 3.55222C4.78631 4.03458 5.25488 4.35067 5.77543 4.37019C6.58539 4.40056 7.8931 4.47636 9.37557 4.66554C10.4298 4.82037 11.2672 4.98119 12.5767 5.45468C14.9595 6.3162 15.4093 6.64828 16.1074 8.19012C16.2798 8.57082 16.3774 8.98014 16.4198 9.3959C16.6624 11.7747 17.2536 15.7409 18.8335 16.187C21.4297 16.9201 24.6946 15.8505 27.7696 13.7582C29.156 12.8149 30.4681 11.9221 31.5954 11.3842C31.6591 11.3538 31.7219 11.3238 31.7837 11.2943C34.0887 10.1943 35.1085 9.70756 36.1622 9.34165C37.1981 8.98194 38.2667 8.73897 40.6211 8.14481C44.2686 7.22435 48.8803 5.81015 51.4169 5.01275C52.459 4.68516 53.1636 3.42043 52.3427 2.69971V2.69971C51.8277 2.24756 50.7939 2.08373 50.6329 2.06057C50.6183 2.05846 50.6043 2.05762 50.5895 2.05762Z" fill="#ECE9E9"/>
<path d="M31.5954 11.3842C30.4681 11.9221 29.156 12.8149 27.7696 13.7582C24.6946 15.8505 21.4297 16.9201 18.8335 16.187C17.2536 15.7409 16.6624 11.7747 16.4198 9.3959C16.3774 8.98014 16.2798 8.57082 16.1074 8.19012C15.4093 6.64828 14.9595 6.3162 12.5767 5.45468C11.2672 4.98119 10.4298 4.82037 9.37557 4.66554C7.8931 4.47636 6.58539 4.40056 5.77543 4.37019C5.25488 4.35067 4.78631 4.03458 4.58961 3.55222L4.39785 3.08195C4.29832 2.83789 4.37442 2.49798 4.5531 2.30421V2.30421C4.60016 2.25318 4.62086 2.23676 4.66959 2.18733L4.76335 2.09223M31.5954 11.3842L31.7837 11.2943M31.5954 11.3842C31.6591 11.3538 31.7219 11.3238 31.7837 11.2943M4.91488 2.05762H50.5895M4.91488 2.05762C4.86279 2.05762 4.81123 2.06939 4.76335 2.09223M4.91488 2.05762L5.49802 2.26204L4.76335 2.09223M50.5895 2.05762C50.6043 2.05762 50.6183 2.05846 50.6329 2.06057M50.5895 2.05762L50.6301 2.06975C50.6348 2.07115 50.6281 2.05987 50.6329 2.06057V2.06057M50.6329 2.06057C50.7939 2.08373 51.8277 2.24756 52.3427 2.69971V2.69971C53.1636 3.42043 52.459 4.68516 51.4169 5.01275C48.8803 5.81015 44.2686 7.22435 40.6211 8.14481C38.2667 8.73897 37.1981 8.98194 36.1622 9.34165C35.1085 9.70756 34.0887 10.1943 31.7837 11.2943" stroke="#1B1E28" stroke-width="2"/>
<path fill-rule="evenodd" clip-rule="evenodd" d="M50.1054 1.03516H6.68235C6.63283 1.03516 6.58381 1.0464 6.53829 1.06821L5.3651 1.63033C5.33998 1.64236 5.31616 1.6575 5.29406 1.67547V1.67547C4.68359 2.17182 5.07534 3.20943 5.86212 3.20939C8.63726 3.20928 12.9566 3.46417 15.0186 4.91923C16.4081 5.89979 16.5933 7.97271 16.7704 9.95631C16.9603 12.082 17.1411 14.1051 18.7849 14.5714C21.2531 15.2716 24.5236 13.036 27.447 11.0376C28.765 10.1367 30.0125 9.28392 31.0841 8.77016C31.1447 8.74111 31.2044 8.7125 31.2632 8.68431C33.4546 7.63363 34.4241 7.16877 35.4259 6.81928C36.4107 6.47571 37.4266 6.24365 39.665 5.67616C42.8899 4.85856 48.3269 3.44489 51.8411 2.52845C52.0491 2.4742 51.9334 1.79064 51.7722 1.64843V1.64843C51.2825 1.21657 50.2997 1.0601 50.1467 1.03797C50.1328 1.03596 50.1194 1.03516 50.1054 1.03516Z" fill="#FFD521"/>
<path d="M31.0841 8.77016C30.0125 9.28392 28.765 10.1367 27.447 11.0376C24.5236 13.036 21.2531 15.2716 18.7849 14.5714C17.1411 14.1051 16.9603 12.082 16.7704 9.95631C16.5933 7.97271 16.4081 5.89979 15.0186 4.91923C12.9566 3.46417 8.63726 3.20928 5.86212 3.20939C5.07534 3.20943 4.68359 2.17182 5.29406 1.67547V1.67547M31.0841 8.77016L31.2632 8.68431M31.0841 8.77016C31.1447 8.74111 31.2044 8.7125 31.2632 8.68431M6.68235 1.03516H50.1054M6.68235 1.03516C6.63283 1.03516 6.58381 1.0464 6.53829 1.06821M6.68235 1.03516V1.03516C6.63294 1.03516 6.58415 1.04624 6.53959 1.06759L6.53829 1.06821M50.1054 1.03516C50.1194 1.03516 50.1328 1.03596 50.1467 1.03797M50.1054 1.03516H50.1061C50.1197 1.03516 50.1332 1.03603 50.1467 1.03797V1.03797M50.1467 1.03797C50.2997 1.0601 51.2825 1.21657 51.7722 1.64843V1.64843C51.9334 1.79064 52.0491 2.4742 51.8411 2.52845C48.3269 3.44489 42.8899 4.85856 39.665 5.67616C37.4266 6.24365 36.4107 6.47571 35.4259 6.81928C34.4241 7.16877 33.4546 7.63363 31.2632 8.68431M5.29406 1.67547C5.31616 1.6575 5.33998 1.64236 5.3651 1.63033M5.29406 1.67547L5.2948 1.67487C5.3164 1.6573 5.33999 1.64235 5.3651 1.63033V1.63033M5.3651 1.63033L6.53829 1.06821" stroke="#1B1E28"/>
</svg>
