<svg width="36" height="36" viewBox="0 0 36 36" fill="none" xmlns="http://www.w3.org/2000/svg">
<path d="M8.2735 19.3313L7.52829 19.2467L8.2735 19.3313ZM8.92396 13.6003L9.66917 13.6849L8.92396 13.6003ZM7.01461 22.1777L6.4435 21.6915H6.4435L7.01461 22.1777ZM28.471 19.2467C28.4243 18.8352 28.0528 18.5394 27.6412 18.5861C27.2296 18.6328 26.9339 19.0043 26.9806 19.4159L28.471 19.2467ZM28.9847 22.1777L28.4136 22.6638L28.9847 22.1777ZM14.6979 6.90719L14.9409 7.61675C15.2441 7.51291 15.4479 7.22777 15.4479 6.90719H14.6979ZM19.9367 5.0952C20.2066 5.40947 20.6801 5.4455 20.9943 5.17568C21.3086 4.90585 21.3446 4.43235 21.0748 4.11808L19.9367 5.0952ZM23.0656 29.8996C23.2109 29.5117 23.0144 29.0795 22.6265 28.9341C22.2386 28.7887 21.8063 28.9853 21.661 29.3732L23.0656 29.8996ZM14.3383 29.3732C14.1929 28.9853 13.7607 28.7887 13.3728 28.9341C12.9849 29.0795 12.7883 29.5117 12.9337 29.8996L14.3383 29.3732ZM26.4028 25.9773H9.59647V27.4773H26.4028V25.9773ZM9.01872 19.4159L9.66917 13.6849L8.17874 13.5157L7.52829 19.2467L9.01872 19.4159ZM7.58571 22.6638C8.38378 21.7263 8.8839 20.6038 9.01872 19.4159L7.52829 19.2467C7.42881 20.1232 7.05825 20.9693 6.4435 21.6915L7.58571 22.6638ZM26.9806 19.4159C27.1154 20.6038 27.6155 21.7263 28.4136 22.6638L29.5558 21.6915C28.941 20.9693 28.5705 20.1232 28.471 19.2467L26.9806 19.4159ZM9.59647 25.9773C8.52589 25.9773 7.73617 25.4444 7.36215 24.7853C6.99553 24.1393 7.00463 23.3465 7.58571 22.6638L6.4435 21.6915C5.4289 22.8835 5.39921 24.3655 6.05757 25.5256C6.70853 26.6727 8.00758 27.4773 9.59647 27.4773V25.9773ZM26.4028 27.4773C27.9917 27.4773 29.2908 26.6727 29.9417 25.5256C30.6001 24.3655 30.5704 22.8835 29.5558 21.6915L28.4136 22.6638C28.9947 23.3465 29.0038 24.1393 28.6371 24.7853C28.2631 25.4444 27.4734 25.9773 26.4028 25.9773V27.4773ZM15.4479 6.90719V6.75633H13.9479V6.90719H15.4479ZM9.66917 13.6849C9.9818 10.9304 12.0499 8.60657 14.9409 7.61675L14.455 6.19763C11.1135 7.34171 8.56759 10.0897 8.17874 13.5157L9.66917 13.6849ZM17.9996 2.70459C15.7619 2.70459 13.9479 4.51862 13.9479 6.75633H15.4479C15.4479 5.34704 16.5904 4.20459 17.9996 4.20459V2.70459ZM17.9996 4.20459C18.7742 4.20459 19.4676 4.54879 19.9367 5.0952L21.0748 4.11808C20.3329 3.25392 19.23 2.70459 17.9996 2.70459V4.20459ZM21.661 29.3732C21.1398 30.7639 19.7138 31.7955 17.9996 31.7955V33.2955C20.3147 33.2955 22.3164 31.8985 23.0656 29.8996L21.661 29.3732ZM17.9996 31.7955C16.2855 31.7955 14.8595 30.7639 14.3383 29.3732L12.9337 29.8996C13.6829 31.8985 15.6846 33.2955 17.9996 33.2955V31.7955Z" fill="#1B1E28"/>
<path d="M31.0906 10.7274C31.0906 13.1374 29.1369 15.091 26.7269 15.091C24.3169 15.091 22.3633 13.1374 22.3633 10.7274C22.3633 8.31744 24.3169 6.36377 26.7269 6.36377C29.1369 6.36377 31.0906 8.31744 31.0906 10.7274Z" fill="#FFD521"/>
<path d="M30.5906 10.7274C30.5906 12.8612 28.8607 14.591 26.7269 14.591V15.591C29.413 15.591 31.5906 13.4135 31.5906 10.7274H30.5906ZM26.7269 14.591C24.5931 14.591 22.8633 12.8612 22.8633 10.7274H21.8633C21.8633 13.4135 24.0408 15.591 26.7269 15.591V14.591ZM22.8633 10.7274C22.8633 8.59358 24.5931 6.86377 26.7269 6.86377V5.86377C24.0408 5.86377 21.8633 8.04129 21.8633 10.7274H22.8633ZM26.7269 6.86377C28.8607 6.86377 30.5906 8.59358 30.5906 10.7274H31.5906C31.5906 8.04129 29.413 5.86377 26.7269 5.86377V6.86377Z" fill="white"/>
</svg>
